<svg width="198" height="108" viewBox="0 0 198 108" fill="none" xmlns="http://www.w3.org/2000/svg">
<path d="M152.785 61.9746C151.033 62.3375 149.338 62.8892 147.7 63.6296C147.065 63.8833 146.357 64.1994 145.577 64.578L143.602 65.6172C142.006 66.4452 140.097 67.4792 137.875 68.7193L135.075 70.4018L132.276 72.0842C132.22 72.1113 132.454 72.025 132.977 71.8254L135.32 87.7316C135.5 88.672 135.814 90.1701 136.26 92.2261C136.504 92.1617 136.836 92.136 137.256 92.1489C138.198 91.9623 138.7 92.287 138.761 93.123C138.801 93.9152 138.563 94.4903 138.048 94.8483L136.877 95.4162C136.264 95.7137 135.602 95.9808 134.89 96.2177C132.923 96.8473 130.766 97.2984 128.419 97.5711L127.658 96.6416C126.946 94.6063 126.492 92.3919 126.295 89.9985L125.435 81.4079L125.104 78.809L124.773 76.2102C122.731 77.2545 120.229 78.414 117.266 79.6888C113.969 81.1258 111.643 82.0103 110.289 82.3425L108.457 82.8252C107.724 83.0183 107.103 83.1573 106.593 83.2422C105.085 83.5408 103.76 83.5071 102.619 83.1411C100.683 82.1322 99.3767 80.5746 98.6995 78.4684C98.4499 77.6697 98.2692 76.7294 98.1576 75.6473C98.1045 74.9698 98.0779 74.0629 98.0778 72.9268C98.0671 72.3368 98.1188 71.6625 98.2329 70.9038L98.4717 68.8403C97.5504 69.0707 96.5177 69.3552 95.3734 69.6938L94.8875 69.1179L94.4852 68.5015C94.1957 68.0467 94.12 67.6777 94.2581 67.3943C95.1793 66.0278 96.569 64.1364 98.4274 61.7202L100.622 58.7894L102.836 55.6867C104.532 55.3507 106.149 55.1346 107.686 55.0383C108.273 54.9701 108.804 54.929 109.279 54.9149C109.622 54.9111 109.859 54.904 109.992 54.8937C110.441 55.1089 110.716 55.4625 110.817 55.9546L110.769 56.7082L110.781 56.9458L110.709 57.2241L109.821 59.4401L108.933 61.6562C108.238 63.3461 107.706 64.8757 107.337 66.2449C106.485 69.742 106.4 72.9752 107.083 75.9444C107.428 77.5083 108.242 78.5473 109.524 79.0615C111.122 78.665 113.781 77.4024 117.501 75.2738C118.741 74.5642 120.099 73.7433 121.575 72.8109L122.431 72.2333L123.235 71.762C123.862 71.3499 124.259 71.1033 124.426 71.0222L124.406 71.1941L124.215 67.3916L124.139 63.6141C124.051 60.7351 124 58.2168 123.987 56.0592C124.005 55.6715 123.845 55.1272 123.505 54.4264L123.122 53.638C123.03 53.3044 122.958 53.0146 122.907 52.7685C122.435 50.9419 122.295 48.7372 122.489 46.1546C122.582 45.3521 122.704 44.1838 122.855 42.6496L123.106 40.8238L123.293 38.8665C123.866 38.9129 124.6 38.9356 125.495 38.9345C126.103 38.9101 126.899 38.8484 127.884 38.7494C129.82 38.6222 130.98 38.6005 131.365 38.6843C132.066 40.1297 132.485 42.1991 132.62 44.8926C132.705 46.2039 132.715 47.7143 132.648 49.4236L132.621 51.7094L132.561 53.9294L133.39 55.6376C134.51 57.096 136.178 58.262 138.392 59.1357C140.705 60.07 143.028 60.4581 145.362 60.3001C147.833 59.8586 149.572 59.6103 150.579 59.5551C152.27 59.4923 153.005 60.2987 152.785 61.9746ZM136.556 64.0838C135.885 63.9767 135.243 63.7196 134.633 63.3125L133.864 62.7926C133.492 62.5942 133.17 62.426 132.896 62.2881C132.424 61.5976 132.044 61.2408 131.757 61.2175C131.184 61.1711 131.372 62.8379 132.323 66.2181C133.25 65.7146 134.661 65.0032 136.556 64.0838Z" fill="white"/>
<path d="M195.134 58.1619C193.427 57.3626 191.675 56.8848 189.879 56.7286C189.2 56.6192 188.426 56.5463 187.557 56.5098L185.318 56.5371C183.515 56.5423 181.336 56.6126 178.781 56.7479L175.503 57.0954L172.225 57.4429C172.163 57.4403 172.409 57.491 172.964 57.5952L167.057 82.8152C166.744 84.3382 166.269 86.7842 165.63 90.1531C165.875 90.2443 166.176 90.459 166.535 90.7975C167.449 91.2401 167.724 92.1006 167.359 93.3789C166.998 94.5765 166.504 95.243 165.877 95.3784L164.574 95.3237C163.891 95.295 163.181 95.1843 162.443 94.9917C160.415 94.4215 158.312 93.4438 156.132 92.0587L155.934 90.11C156.331 86.5692 157.042 82.9608 158.067 79.2846L161.609 65.9717L162.62 61.8907L163.63 57.8098C161.331 57.7941 158.573 57.5975 155.356 57.2199C151.767 56.8267 149.3 56.3593 147.955 55.8178L146.119 55.1343C145.384 54.8609 144.774 54.5928 144.287 54.3298C142.825 53.6216 141.689 52.5633 140.877 51.1548C139.696 48.1945 139.337 44.905 139.8 41.2862C139.981 39.9193 140.294 38.3963 140.737 36.717C141.03 35.6782 141.46 34.3218 142.027 32.6478C142.313 31.7704 142.695 30.8162 143.173 29.7853L144.412 26.9266C143.495 26.5647 142.453 26.1976 141.288 25.8253L141.152 24.6069L141.11 23.3923C141.085 22.5019 141.204 21.9005 141.466 21.5881C142.951 20.276 145.106 18.5473 147.931 16.4021L151.306 13.7544L154.784 10.8685C156.429 11.6652 157.945 12.5777 159.331 13.6061C159.876 13.9524 160.359 14.2961 160.78 14.6372C161.08 14.8923 161.291 15.0628 161.411 15.1488C161.695 15.8074 161.757 16.5377 161.599 17.3396L161.181 18.4135L161.073 18.7728L160.871 19.1282L158.991 21.7173L157.111 24.3065C155.661 26.2669 154.433 28.1154 153.428 29.8519C150.938 34.3559 149.249 39.0552 148.36 43.9497C147.879 46.5168 148.069 48.6673 148.928 50.4012C150.518 51.0339 153.464 51.198 157.766 50.8935C159.2 50.792 160.793 50.6162 162.544 50.3663L163.578 50.1672L164.514 50.0852C165.266 49.955 165.734 49.8939 165.921 49.9017L165.817 50.1399L167.551 44.3914L169.372 38.7679C170.734 34.4591 171.948 30.7101 173.014 27.5208C173.224 26.9637 173.356 26.0395 173.411 24.7481L173.472 23.2954C173.557 22.733 173.64 22.2514 173.719 21.8504C174.22 18.7991 175.2 15.4445 176.659 11.7867C177.141 10.675 177.831 9.04649 178.729 6.90123L179.86 4.40189L181 1.66042C181.476 2.16551 182.104 2.75783 182.884 3.43736C183.426 3.86434 184.15 4.37985 185.057 4.98388C186.806 6.27005 187.827 7.12142 188.12 7.53798C188.009 10.2014 187.339 13.569 186.111 17.6408C185.53 19.6377 184.783 21.8702 183.872 24.3383L182.705 27.6851L181.544 30.9108L181.412 34.0584C181.659 37.0603 182.528 40.0478 184.02 43.021C185.567 46.1583 187.396 48.4989 189.507 50.0428C191.879 51.2743 193.518 52.2324 194.421 52.9172C195.925 54.1122 196.163 55.8604 195.134 58.1619ZM179.949 48.914C179.418 48.2449 178.988 47.3779 178.66 46.313L178.25 44.9618C178.026 44.3864 177.829 43.8931 177.66 43.4817C177.593 42.1045 177.441 41.2896 177.203 41.037C176.727 40.5319 176.058 43.1315 175.197 48.8358C176.255 48.7993 177.839 48.8254 179.949 48.914Z" fill="white"/>
<path d="M71.8136 25.5727C69.9593 32.9901 65.9556 39.6488 59.8026 45.549C55.4196 49.7634 49.2665 54.1043 41.3434 58.5716C40.4162 59.0773 39.2784 59.3302 37.9297 59.3302H34.6425C33.7996 73.8277 33.5046 87.6089 33.7575 100.674C33.0832 101.264 31.0181 101.474 27.5623 101.306C24.6122 101.221 22.2521 100.969 20.4821 100.547C19.9763 88.2411 20.1028 74.3335 20.8614 58.8244C21.1142 53.43 21.5357 46.7712 22.1257 38.8481L22.8843 28.8599L23.5164 18.9982L24.275 19.5039C21.4092 20.5997 19.007 21.7797 17.0684 23.044C16.3941 23.4655 15.5933 24.0134 14.6662 24.6877L13.6547 25.5727L12.3904 26.4577C12.6432 27.3849 13.0225 28.4385 13.5283 29.6185L14.919 32.7793C16.1834 35.4766 16.8998 37.7945 17.0684 39.7331C16.5627 40.576 15.7198 41.2503 14.5397 41.756L12.8961 42.2618L11.3789 42.8939C9.69316 43.1468 5.90018 37.8788 0 27.0899L0.252865 23.5498C10.1146 16.6381 17.9534 12.4237 23.7693 10.9065C37.8455 7.02926 50.2358 6.48138 60.9405 9.2629C65.6606 11.2015 68.99 13.8145 70.9286 17.1017C71.9401 19.8832 72.2351 22.7069 71.8136 25.5727ZM57.021 15.9638C55.7567 14.1938 53.0174 13.393 48.8029 13.5616C47.2015 13.6459 45.305 13.8566 43.1135 14.1938L40.2055 14.6995L37.5504 15.2052L37.0447 23.8026L36.2861 32.4C35.6118 39.9017 35.1904 45.5912 35.0218 49.4684C43.7035 43.9897 49.8987 38.5952 53.6074 33.2851C58.4118 26.542 59.5497 20.7683 57.021 15.9638Z" fill="white"/>
<path d="M59.2178 91.6212C59.4365 92.6053 59.1814 93.6258 58.4524 94.6828C58.1608 95.0837 57.7964 95.5211 57.359 95.9949L56.7576 96.5416L56.1562 97.0884C52.1105 100.66 48.2288 102.337 44.5111 102.118H43.2537C42.6705 102.082 42.142 101.991 41.6682 101.845C40.3561 101.407 39.2626 100.442 38.3879 98.9472C37.6589 97.6351 37.258 95.8309 37.1851 93.5347C37.1487 92.6599 37.1669 91.7487 37.2398 90.8011C37.2762 90.0357 37.3491 89.325 37.4585 88.6689C37.1669 88.7782 36.8935 88.9058 36.6384 89.0516C36.3104 89.2338 35.9823 89.489 35.6543 89.817C35.9459 88.5049 36.1646 87.6848 36.3104 87.3568C36.3833 87.1381 36.5837 86.9559 36.9117 86.8101C37.2033 86.6643 37.5314 86.5367 37.8958 86.4274C39.864 80.1948 42.6705 74.6 46.3153 69.6431C47.7003 67.8207 49.0124 66.3081 50.2517 65.1054C51.3815 64.0848 52.1652 63.5746 52.6025 63.5746C52.9306 63.5746 53.4408 63.5563 54.1334 63.5199L54.9534 63.4652H55.7188C56.9581 63.5381 57.7964 64.0484 58.2337 64.996C58.6347 65.8343 58.8716 66.9278 58.9445 68.2763C58.9809 69.1511 58.9262 70.3174 58.7805 71.7753C58.416 76.222 57.7781 79.8303 56.8669 82.6003C56.7941 82.8919 56.8123 83.2746 56.9216 83.7484C56.4842 83.9671 54.6072 84.5685 51.2904 85.5526C47.7914 86.5731 44.9667 87.3568 42.8163 87.9035C42.6341 88.4502 42.5065 89.1245 42.4336 89.9264L42.3243 91.0198L42.2149 92.0586L42.2696 93.2067L42.3243 94.3548C42.3971 95.2295 42.5247 95.9767 42.707 96.5963C43.1808 98.1636 44.092 99.257 45.4405 99.8766C46.7162 99.5486 48.1012 98.9107 49.5956 97.9631C50.1423 97.5986 50.7619 97.1613 51.4544 96.651L52.3292 95.9949L53.2039 95.3389L53.4773 95.0655L53.86 94.7921C54.1516 94.537 54.3885 94.3001 54.5707 94.0814C55.0446 93.4982 55.0992 92.9697 54.7347 92.4959C54.2245 92.2043 53.4044 91.9857 52.2745 91.8399L51.5638 91.7305L50.8531 91.6212C50.3428 91.5118 49.869 91.366 49.4316 91.1838V89.7623L54.0787 88.9969C54.2609 89.3979 54.4249 89.5983 54.5707 89.5983L55.1721 89.7077L55.8282 89.8717C56.3385 89.981 56.7758 90.0904 57.1403 90.1997C58.0879 90.5277 58.7805 91.0016 59.2178 91.6212ZM54.4614 67.6203C51.2904 70.7183 48.6844 74.3813 46.6433 78.6093C45.0761 81.3429 43.9826 83.5844 43.363 85.3339C43.8733 85.1881 44.584 85.0059 45.4952 84.7872L47.7368 84.1858C49.5227 83.6755 50.9624 83.2928 52.0558 83.0377C52.2016 82.6368 52.3656 82.163 52.5479 81.6162C52.803 80.9237 53.0217 80.2312 53.2039 79.5387C53.7871 77.6434 54.1334 76.2037 54.2427 75.2196L54.4614 73.3608L54.6801 71.3926C54.753 69.9347 54.6801 68.6773 54.4614 67.6203Z" fill="white"/>
<path d="M79.0504 77.8295C79.6404 73.4465 80.104 67.7992 80.4412 60.8876L80.9469 52.2902L81.4526 43.6927C82.4641 29.9537 84.9506 18.7855 88.9121 10.1881L90.4293 8.79738C91.4408 9.30311 93.3373 9.59811 96.1188 9.6824C97.046 9.76669 98.0996 9.76669 99.2796 9.6824H101.429C102.356 11.7053 103.241 14.1075 104.084 16.889L105.095 20.682L106.107 24.475C107.793 31.1338 109.436 35.9382 111.038 38.8883C112.976 42.6813 114.662 45.5471 116.095 47.4857L116.727 49.6351C115.126 50.0565 112.892 50.3515 110.026 50.5201C107.329 50.6887 105.896 50.6465 105.728 50.3937H103.958C103.03 50.2251 102.272 49.9722 101.682 49.6351C100.586 48.0336 99.406 45.4628 98.1417 41.9227L96.6245 37.624C96.0345 35.9382 95.4866 34.5475 94.9809 33.4517C94.2223 36.5704 93.4637 41.417 92.7051 47.9914C92.368 50.5201 92.0308 53.5966 91.6936 57.221L90.8086 66.8299C89.2914 83.3504 87.7321 93.465 86.1306 97.1737C86.2149 100.377 85.5828 102.02 84.2341 102.105C83.0541 102.273 79.0083 101.304 72.0966 99.1966C71.0852 94.9822 69.9473 90.2199 68.683 84.9097C67.1658 78.4195 65.7329 72.2665 64.3843 66.4506C60.8441 51.0258 62.5926 60.5504 61.6654 54.5659C61.4968 53.8916 61.2439 53.0066 60.9068 51.9109L60.5275 50.773L60.2746 49.6351C59.8532 48.2865 59.9375 47.57 60.5275 47.4857C61.2861 47.6543 62.3397 47.7386 63.6883 47.7386L65.4584 47.865H67.2284C70.2628 47.9493 72.4121 48.2865 73.6765 48.8765L74.9408 51.1523C75.9523 55.7881 74.6674 51.1944 79.0504 77.8295Z" fill="white"/>
<path d="M123.225 10.3895C124.223 9.28418 125.952 9.26659 126.971 10.3513L127.747 11.1763C128.316 11.7813 129.144 12.071 129.966 11.9525L131.093 11.7899C132.577 11.5759 133.924 12.6841 133.999 14.1816L134.053 15.2317C134.095 16.0729 134.551 16.8389 135.27 17.2774L136.175 17.8289C137.467 18.6168 137.791 20.3514 136.87 21.5526L136.244 22.3692C135.729 23.041 135.581 23.9249 135.85 24.7276L136.176 25.7006C136.655 27.1306 135.793 28.6611 134.322 28.9932L133.246 29.236C132.431 29.42 131.758 29.9928 131.445 30.7682L131.036 31.7825C130.478 33.166 128.856 33.776 127.525 33.1027L126.498 32.5835C125.759 32.2098 124.885 32.2189 124.153 32.6078L123.138 33.1477C121.821 33.8481 120.186 33.2715 119.6 31.8997L119.171 30.8937C118.842 30.125 118.158 29.5665 117.339 29.3992L116.258 29.1784C114.781 28.8766 113.888 27.3639 114.337 25.9244L114.643 24.9449C114.895 24.1369 114.73 23.2562 114.201 22.5952L113.558 21.7916C112.613 20.6096 112.901 18.8685 114.177 18.0542L115.07 17.4844C115.78 17.0313 116.22 16.2564 116.245 15.4145L116.277 14.3632C116.322 12.8644 117.646 11.7288 119.134 11.9124L120.264 12.052C121.088 12.1536 121.91 11.8469 122.466 11.2304L123.225 10.3895ZM130.879 13.656C130.475 13.7533 130.179 13.8685 129.99 14.0013C128.624 15.2627 127.382 17.0792 126.267 19.4509L125.811 18.5858C125.64 18.2666 125.476 17.9893 125.319 17.7543C125.271 17.704 125.121 17.6782 124.871 17.6765C124.61 17.6862 124.413 17.7172 124.283 17.7698C124.213 17.8615 124.343 18.3038 124.673 19.0965C124.955 19.7674 125.248 20.4033 125.553 21.0039L123.673 25.1942C123.533 25.4966 123.395 25.8706 123.257 26.3161L123.067 26.8958L122.877 27.4759C122.417 26.7595 121.948 25.8577 121.471 24.7709C121.227 24.2331 121.024 23.7156 120.864 23.2181L120.678 22.6356L120.475 22.0347C120.594 21.9934 120.724 21.9406 120.866 21.8768L121.239 21.7363C121.535 21.5973 121.832 21.4941 122.129 21.4267C122.258 21.3025 122.254 20.9087 122.115 20.2454C121.965 19.5699 121.777 19.2676 121.551 19.3387C121.266 19.3471 120.874 19.4451 120.376 19.6327L119.807 19.8525C119.593 19.9125 119.391 19.949 119.201 19.9626C118.785 19.9997 118.561 20.1903 118.529 20.5342L118.862 21.5181L119.195 22.5019C119.454 23.2908 119.693 23.9296 119.913 24.4183C120.794 26.445 121.869 28.3452 123.14 30.1188C123.176 30.1565 123.23 30.1893 123.302 30.217C123.398 30.2699 123.488 30.3166 123.571 30.3569C123.811 30.4652 123.996 30.505 124.126 30.4763C124.162 30.4424 124.249 30.2623 124.388 29.936C124.55 29.5394 124.718 29.1014 124.891 28.622C125.214 27.7096 125.589 26.7582 126.019 25.7681C126.181 25.3715 126.355 24.9637 126.54 24.5445C126.691 24.2308 126.848 23.8874 127.01 23.5147C127.216 23.7523 127.414 23.9481 127.606 24.1016C127.859 24.2941 128.11 24.4269 128.361 24.5001C128.594 24.0359 128.59 23.666 128.348 23.3907C128.336 23.3781 128.306 23.3227 128.257 23.2247L128.166 23.0587L128.057 22.874L127.838 22.4687C127.752 22.3091 127.686 22.1803 127.637 22.0823C128.147 20.87 128.787 19.6408 129.559 18.3949C130.365 17.0915 131.005 16.3333 131.479 16.1204C131.49 16.1091 131.77 16.0587 132.316 15.969C132.322 15.4567 132.156 14.941 131.816 14.4219C131.501 13.9519 131.189 13.6966 130.879 13.656Z" fill="white"/>
</svg>
